<?xml version="1.0" encoding="UTF-8" standalone="no"?>
<svg
   xmlns:dc="http://purl.org/dc/elements/1.1/"
   xmlns:cc="http://creativecommons.org/ns#"
   xmlns:rdf="http://www.w3.org/1999/02/22-rdf-syntax-ns#"
   xmlns:svg="http://www.w3.org/2000/svg"
   xmlns="http://www.w3.org/2000/svg"
   xml:space="preserve"
   enable-background="new 0 0 429 117.3"
   viewBox="0 0 429 117.3"
   y="0px"
   x="0px"
   id="Layer_1"
   version="1.1"><metadata
   id="metadata60"><rdf:RDF><cc:Work
       rdf:about=""><dc:format>image/svg+xml</dc:format><dc:type
         rdf:resource="http://purl.org/dc/dcmitype/StillImage" /><dc:title></dc:title></cc:Work></rdf:RDF></metadata><defs
   id="defs58" />
<g
   id="g33">
	<linearGradient
   y2="-9.094947e-13"
   x2="58.666"
   y1="117.332"
   x1="58.666"
   gradientUnits="userSpaceOnUse"
   id="SVGID_1_">
		<stop
   id="stop2"
   style="stop-color:#4400aa;stop-opacity:1"
   offset="0" />
		<stop
   id="stop4"
   style="stop-color:#9955ff;stop-opacity:1"
   offset="1" />
	</linearGradient>
	<circle
   id="circle7"
   r="58.7"
   cy="58.7"
   cx="58.7"
   fill="url(#SVGID_1_)" />
	<g
   id="g31">
		<circle
   id="circle9"
   r="43.7"
   cy="58.5"
   cx="58.7"
   stroke-miterlimit="10"
   stroke-width="6"
   stroke="#FFFFFF"
   fill="none" />
		<g
   id="g15">
			<path
   id="path11"
   d="M94.7,47.8c4.7,1.6,9.8-0.9,11.4-5.6c1.6-4.7-0.9-9.8-5.6-11.4c-4.7-1.6-9.8,0.9-11.4,5.6     C87.5,41.1,90,46.2,94.7,47.8z"
   fill="#FFFFFF" />
			<line
   id="line13"
   y2="64.4"
   x2="67.5"
   y1="39.4"
   x1="97.6"
   stroke-miterlimit="10"
   stroke-width="6"
   stroke="#FFFFFF"
   fill="none" />
		</g>
		<g
   id="g21">
			<path
   id="path17"
   d="M77.6,91c-0.4,4.9,3.2,9.3,8.2,9.8c5,0.4,9.3-3.2,9.8-8.2c0.4-4.9-3.2-9.3-8.2-9.8     C82.4,82.4,78,86,77.6,91z"
   fill="#FFFFFF" />
			<line
   id="line19"
   y2="64.4"
   x2="67.5"
   y1="91.8"
   x1="86.5"
   stroke-miterlimit="10"
   stroke-width="6"
   stroke="#FFFFFF"
   fill="none" />
		</g>
		<path
   id="path23"
   d="M60,69.3c2.7,4.2,8.3,5.4,12.4,2.7c4.2-2.7,5.4-8.3,2.7-12.4c-2.7-4.2-8.3-5.4-12.4-2.7    C58.5,59.5,57.3,65.1,60,69.3z"
   fill="#FFFFFF" />
		<g
   id="g29">
			<path
   id="path25"
   d="M21.2,61.4c-4.3-2.5-9.8-1.1-12.3,3.1c-2.5,4.3-1.1,9.8,3.1,12.3c4.3,2.5,9.8,1.1,12.3-3.1     C26.8,69.5,25.4,64,21.2,61.4z"
   fill="#FFFFFF" />
			<line
   id="line27"
   y2="64.4"
   x2="67.5"
   y1="69.1"
   x1="16.6"
   stroke-miterlimit="10"
   stroke-width="6"
   stroke="#FFFFFF"
   fill="none" />
		</g>
	</g>
</g>

<g
   id="text869"
   style="font-style:normal;font-variant:normal;font-weight:normal;font-stretch:normal;font-size:40px;line-height:1.25;font-family:'Overpass Mono';-inkscape-font-specification:'Overpass Mono';letter-spacing:0px;word-spacing:0px;fill:#5500d4;fill-opacity:1;stroke:none"
   aria-label="WeSync"><path
     id="path885"
     style="font-style:normal;font-variant:normal;font-weight:bold;font-stretch:normal;font-size:74.66666412px;font-family:Quicksand;-inkscape-font-specification:'Quicksand Bold';fill:#5500d4"
     d="m 197.37464,26.851254 q 1.792,0 3.28534,1.418667 1.568,1.344 1.568,3.434666 0,0.672 -0.224,1.493334 l -14.70934,43.306665 q -0.448,1.269333 -1.568,2.016 -1.12,0.746666 -2.464,0.821333 -1.344,0 -2.53866,-0.746667 -1.19467,-0.746666 -1.86667,-2.165333 L 168.25464,52.312587 157.57731,76.429919 q -0.672,1.418667 -1.86667,2.165333 -1.19466,0.746667 -2.53866,0.746667 -1.344,-0.07467 -2.464,-0.821333 -1.12,-0.746667 -1.568,-2.016 L 134.43064,33.197921 q -0.224,-0.821334 -0.224,-1.493334 0,-2.090666 1.49334,-3.434666 1.568,-1.418667 3.43466,-1.418667 1.49334,0 2.688,0.821333 1.19467,0.746667 1.64267,2.090667 l 11.12533,33.749332 9.70667,-23.295999 q 0.59733,-1.344 1.71733,-2.090667 1.12,-0.821333 2.53867,-0.746666 1.41867,-0.07467 2.464,0.746666 1.12,0.746667 1.71733,2.090667 l 9.184,23.071999 11.05067,-33.525332 q 0.448,-1.344 1.64267,-2.090667 1.26933,-0.821333 2.76266,-0.821333 z" /><path
     id="path887"
     style="font-style:normal;font-variant:normal;font-weight:bold;font-stretch:normal;font-size:74.66666412px;font-family:Quicksand;-inkscape-font-specification:'Quicksand Bold';fill:#5500d4"
     d="m 242.97614,58.435253 q -0.0747,1.792 -1.41867,2.912 -1.344,1.12 -3.136,1.12 h -24.64 q 0.896,4.405333 4.10667,6.944 3.21067,2.464 7.24267,2.464 3.06133,0 4.77866,-0.522667 1.71734,-0.597333 2.688,-1.194667 1.04534,-0.672 1.41867,-0.896 1.344,-0.672 2.53867,-0.672 1.568,0 2.688,1.12 1.12,1.12 1.12,2.613334 0,2.015999 -2.09067,3.658666 -2.09067,1.717333 -5.6,2.912 -3.50933,1.194667 -7.09333,1.194667 -6.272,0 -10.976,-2.613334 -4.62934,-2.613333 -7.168,-7.167999 -2.53867,-4.629334 -2.53867,-10.378667 0,-6.421333 2.688,-11.274666 2.688,-4.853333 7.09333,-7.392 4.40534,-2.613333 9.408,-2.613333 4.928,0 9.25867,2.688 4.40533,2.688 7.01867,7.242666 2.61333,4.554667 2.61333,9.856 z M 224.08547,46.86192 q -8.66133,0 -10.22933,8.138666 h 19.56267 V 54.47792 q -0.29867,-3.136 -3.06134,-5.376 -2.76266,-2.24 -6.272,-2.24 z" /><path
     id="path889"
     style="font-style:normal;font-variant:normal;font-weight:bold;font-stretch:normal;font-size:74.66666412px;font-family:Quicksand;-inkscape-font-specification:'Quicksand Bold';fill:#5500d4"
     d="m 267.99531,80.088586 q -5.376,0 -9.55734,-1.344 -4.18133,-1.344 -7.84,-4.554667 -2.016,-1.792 -2.016,-3.957333 0,-1.717333 1.26934,-2.986667 1.26933,-1.344 3.06133,-1.344 1.41867,0 2.53867,0.896 2.98666,2.464 5.824,3.584 2.83733,1.12 6.72,1.12 4.18133,0 7.168,-1.866666 3.06133,-1.866667 3.06133,-4.629334 0,-3.359999 -2.98667,-5.226666 -2.98666,-1.941333 -9.48266,-2.912 -16.352,-2.389333 -16.352,-15.231999 0,-4.704 2.464,-8.138667 2.464,-3.509333 6.72,-5.301333 4.256,-1.866667 9.48266,-1.866667 4.704,0 8.81067,1.418667 4.18133,1.418667 6.944,3.733333 2.16533,1.717334 2.16533,3.957333 0,1.717334 -1.26933,3.061334 -1.26933,1.269333 -2.98667,1.269333 -1.12,0 -2.016,-0.672 -1.94133,-1.568 -5.45066,-2.837333 -3.43467,-1.344 -6.19734,-1.344 -4.704,0 -7.31733,1.792 -2.53867,1.717333 -2.53867,4.554666 0,3.210667 2.61334,4.853333 2.688,1.642667 8.36266,2.688 6.42134,1.12 10.22934,2.912 3.88266,1.717333 5.824,4.778667 1.94133,2.986666 1.94133,7.989333 0,4.704 -2.688,8.288 -2.61333,3.509333 -7.01867,5.450666 -4.40533,1.866667 -9.48266,1.866667 z" /><path
     id="path891"
     style="font-style:normal;font-variant:normal;font-weight:bold;font-stretch:normal;font-size:74.66666412px;font-family:Quicksand;-inkscape-font-specification:'Quicksand Bold';fill:#5500d4"
     d="m 324.71631,39.395254 q 1.94133,0 3.21066,1.344 1.26934,1.269333 1.26934,3.210666 v 31.733332 q 0,9.706667 -5.22667,14.112 -5.22667,4.48 -13.96267,4.48 -2.53866,0 -5.22666,-0.448 -2.61334,-0.373334 -4.256,-1.045334 -3.65867,-1.567999 -3.65867,-4.330666 0,-0.522667 0.224,-1.194667 0.448,-1.642666 1.49333,-2.538666 1.12,-0.821334 2.38934,-0.821334 0.74666,0 1.41866,0.224 0.52267,0.224 1.792,0.746667 1.344,0.522667 2.76267,0.821333 1.49333,0.373334 3.06133,0.373334 5.30134,0 7.76534,-2.314667 2.53866,-2.24 2.53866,-7.765333 v -0.746667 q -3.88266,4.853334 -12.096,4.853334 -3.88266,0 -6.86933,-1.792 -2.98667,-1.866667 -4.62933,-5.077334 -1.64267,-3.285333 -1.64267,-7.466666 V 43.94992 q 0,-1.941333 1.26933,-3.210666 1.26934,-1.344 3.21067,-1.344 1.94133,0 3.21067,1.344 1.26933,1.269333 1.26933,3.210666 v 19.114666 q 0,4.704 2.016,6.794667 2.09067,2.016 6.048,2.016 3.88267,0 5.97333,-2.24 2.16534,-2.314667 2.16534,-6.570667 V 43.94992 q 0,-1.941333 1.26933,-3.210666 1.26933,-1.344 3.21067,-1.344 z" /><path
     id="path893"
     style="font-style:normal;font-variant:normal;font-weight:bold;font-stretch:normal;font-size:74.66666412px;font-family:Quicksand;-inkscape-font-specification:'Quicksand Bold';fill:#5500d4"
     d="m 360.32413,38.648587 q 7.616,0 10.528,4.554667 2.912,4.479999 2.912,12.469332 v 19.114666 q 0,1.941334 -1.26933,3.285334 -1.26933,1.269333 -3.21067,1.269333 -1.94133,0 -3.21066,-1.269333 -1.26934,-1.344 -1.26934,-3.285334 V 55.672586 q 0,-4.106666 -1.71733,-6.421333 -1.71733,-2.389333 -5.89867,-2.389333 -4.33066,0 -6.79466,2.538667 -2.464,2.464 -2.464,6.271999 v 19.114666 q 0,1.941334 -1.26934,3.285334 -1.26933,1.269333 -3.21066,1.269333 -1.94134,0 -3.21067,-1.269333 -1.26933,-1.344 -1.26933,-3.285334 V 43.94992 q 0,-1.941333 1.26933,-3.210666 1.26933,-1.344 3.21067,-1.344 1.94133,0 3.21066,1.344 1.26934,1.269333 1.26934,3.210666 v 1.269333 q 2.016,-2.687999 5.22666,-4.629333 3.28534,-1.941333 7.168,-1.941333 z" /><path
     id="path895"
     style="font-style:normal;font-variant:normal;font-weight:bold;font-stretch:normal;font-size:74.66666412px;font-family:Quicksand;-inkscape-font-specification:'Quicksand Bold';fill:#5500d4"
     d="m 400.84597,38.648587 q 6.34667,0 10.22934,2.016 3.88266,1.941333 3.88266,5.226666 0,1.642667 -0.97066,2.912 -0.97067,1.194667 -2.53867,1.194667 -1.19467,0 -1.94133,-0.298667 -0.74667,-0.373333 -1.49334,-0.896 -0.672,-0.597333 -1.344,-0.970666 -0.74666,-0.373334 -2.24,-0.672 -1.41866,-0.298667 -2.31466,-0.298667 -5.6,0 -8.81067,3.509333 -3.136,3.434667 -3.136,9.034667 0,5.375999 3.21067,8.959999 3.21066,3.509334 8.21333,3.509334 3.65867,0 5.45067,-0.896 0.448,-0.224 1.19466,-0.746667 0.82134,-0.597333 1.49334,-0.896 0.672,-0.298667 1.64266,-0.298667 1.86667,0 2.912,1.194667 1.12,1.194667 1.12,3.061333 0,1.792 -2.09066,3.36 -2.09067,1.568 -5.52534,2.538667 -3.43466,0.896 -7.31733,0.896 -5.74933,0 -10.15467,-2.688 -4.33066,-2.688 -6.72,-7.392 -2.38933,-4.778667 -2.38933,-10.602666 0,-6.048 2.464,-10.752 2.53867,-4.704 7.01867,-7.317333 4.48,-2.688 10.15466,-2.688 z" /></g><text
   id="text873"
   y="387.03055"
   x="115.5988"
   style="font-style:normal;font-variant:normal;font-weight:normal;font-stretch:normal;font-size:40px;line-height:1.25;font-family:'Overpass Mono';-inkscape-font-specification:'Overpass Mono';letter-spacing:0px;word-spacing:0px;fill:#000000;fill-opacity:1;stroke:none"
   xml:space="preserve"><tspan
     y="422.03055"
     x="115.5988"
     id="tspan871"></tspan></text>
</svg>